# xmcd
# Track frame offsets:
# 150
# 16055
# 33398
# 52305
# 76980
# 95029
# 113185
# 132071
# 148581
# 162182
# 183746
# 199740
# 215915
# 238942
# 251902
# 266424
#
# Disc length: 3797 seconds
# Revision: 0
# Processed by: cddbd v1.5.2PL0 Copyright (c) Steve Scherf et al.
# Submitted via: VisiTrax 2.10.0.248 - For more info visit www.synapsa.com
#
DISCID=f00ed310
DTITLE=Logan, John "Juke" - The Chill (Re-Chilled)
DYEAR=2007
DGENRE=Blues
TTITLE0=Fan the Flames
TTITLE1=She's Cool People
TTITLE2=Play Tha' Blues
TTITLE3=Young and Wired
TTITLE4=She Stone Me
TTITLE5=Rumblin Reeds
TTITLE6=Dig Ta' China
TTITLE7=Hustler
TTITLE8=Long Low Ride
TTITLE9=Bayou Diamond Ring
TTITLE10=If the Money's All Right
TTITLE11=We Got Ta' Rock
TTITLE12=The Chill
TTITLE13=Soul Stroll
TTITLE14=Mello C
TTITLE15=Tend to My Bid'ness
EXTD=
EXTT0=
EXTT1=
EXTT2=
EXTT3=
EXTT4=
EXTT5=
EXTT6=
EXTT7=
EXTT8=
EXTT9=
EXTT10=
EXTT11=
EXTT12=
EXTT13=
EXTT14=
EXTT15=
PLAYORDER=
